<?xml version="1.0" encoding="UTF-8"?>
<!-- Generated by Pixelmator Pro 3.7.1 -->
<svg width="493" height="95" viewBox="0 0 493 95" xmlns="http://www.w3.org/2000/svg">
    <path id="Path" fill="#e06a47" stroke="none" d="M 157.809998 21.900002 C 154.559998 21.900002 151.929993 24.459999 151.929993 27.779999 C 151.929993 31.100002 154.559998 33.59 157.809998 33.59 C 161.059998 33.59 163.690002 31.029999 163.690002 27.779999 C 163.690002 24.529999 161.059998 21.900002 157.809998 21.900002 Z"/>
    <path id="path1" fill="#3b5c8a" stroke="none" d="M 202.899994 41.200001 C 199.649994 37.670002 195.5 35.940002 190.589996 35.940002 C 188.119995 35.940002 185.919998 36.420002 184.160004 37.230003 L 184.160004 46.400002 C 185.509995 45.650002 187.020004 45.27 188.720001 45.27 C 191.210007 45.27 193.289993 46.100002 195.009995 47.830002 C 196.740005 49.490002 197.570007 51.57 197.570007 53.990002 C 197.570007 56.41 196.740005 58.490002 195.009995 60.210003 C 193.279999 61.870003 191.210007 62.700001 188.720001 62.700001 C 186.229996 62.700001 184.020004 61.870003 182.220001 60.210003 C 180.490005 58.480003 179.589996 56.41 179.589996 53.990002 C 179.589996 53.800003 179.589996 37.790001 179.610001 23.209999 L 169.910004 23.209999 L 169.910004 71.410004 L 180.220001 71.410004 L 180.220001 66.849998 C 181.259995 69.889999 185.339996 72.040001 190.589996 72.040001 C 195.5 72.040001 199.649994 70.310005 202.899994 66.849998 C 206.220001 63.32 207.880005 59.030003 207.880005 53.990002 C 207.880005 48.950001 206.220001 44.650002 202.899994 41.200001 Z"/>
    <path id="path2" fill="#e06a47" stroke="none" d="M 218.330002 21.900002 C 215.080002 21.900002 212.449997 24.459999 212.449997 27.779999 C 212.449997 31.100002 215.080002 33.59 218.330002 33.59 C 221.580002 33.59 224.210007 31.029999 224.210007 27.779999 C 224.210007 24.529999 221.580002 21.900002 218.330002 21.900002 Z"/>
    <path id="path3" fill="#3b5c8a" stroke="none" d="M 213.210007 36.560001 L 223.520004 36.560001 L 223.520004 71.419998 L 213.210007 71.419998 Z"/>
    <path id="path4" fill="#3b5c8a" stroke="none" d="M 253.670013 37.290001 C 253.940002 37.030003 254.230011 36.810001 254.5 36.57 L 242.73999 36.57 L 242.73999 23.220001 L 232.710007 23.220001 L 232.710007 36.57 L 228.080002 36.57 L 228.080002 45.91 L 232.710007 45.91 L 232.710007 71.43 L 242.73999 71.43 L 242.73999 45.91 L 248.140015 45.91 C 249.25 42.620003 251.079987 39.730003 253.670013 37.300003 Z"/>
    <path id="path5" fill="#3b5c8a" stroke="none" d="M 270.450012 35.66 C 264.98999 35.66 260.420013 37.32 256.890015 40.710003 C 253.359985 44.030003 251.559998 48.460003 251.559998 53.920002 L 251.559998 54.200001 C 251.559998 59.66 253.290009 64.020004 256.820007 67.340004 C 260.350006 70.590004 264.910004 72.25 270.649994 72.25 C 276.390015 72.25 281.579987 70.110001 285.660004 65.889999 L 279.640015 60.150002 C 277.220001 62.43 274.380005 63.540001 271.130005 63.540001 C 265.670013 63.540001 262.070007 60.84 261.859985 56.690002 L 288.209991 56.690002 C 288.279999 55.650002 288.350006 54.550003 288.350006 53.370003 C 288.350006 48.32 286.690002 44.170002 283.369995 40.780003 C 280.049988 37.390003 275.76001 35.66 270.440002 35.66 Z M 262.01001 49.980003 C 262.290009 46.730003 265.950012 44.170002 270.450012 44.170002 C 274.600006 44.170002 277.98999 46.730003 277.98999 49.980003 L 262.01001 49.980003 Z"/>
    <path id="path6" fill="#3b5c8a" stroke="none" d="M 303.790009 41.330002 L 303.790009 36.560001 L 293.480011 36.560001 L 293.480011 71.419998 L 303.790009 71.419998 L 303.790009 54.41 C 303.790009 48.670002 307.25 45.350002 313.130005 45.350002 C 314.369995 45.350002 315.549988 45.490002 316.589996 45.700001 L 316.589996 36.02 C 315.480011 35.880001 314.579987 35.810001 313.890015 35.810001 C 309.119995 35.810001 305.380005 37.82 303.790009 41.34 Z"/>
    <path id="path7" fill="#3b5c8a" stroke="none" d="M 356.48999 36.560001 L 346.179993 36.560001 L 346.179993 41.120003 C 345.140015 38.080002 341.059998 35.93 335.809998 35.93 C 330.899994 35.93 326.75 37.66 323.429993 41.190002 C 320.179993 44.650002 318.519989 48.940002 318.519989 53.980003 C 318.519989 59.02 320.179993 63.32 323.429993 66.840004 C 326.75 70.300003 330.899994 72.029999 335.809998 72.029999 C 338.329987 72.029999 340.579987 71.529999 342.350006 70.68 L 342.350006 61.510002 C 340.98999 62.290001 339.429993 62.690002 337.679993 62.690002 C 335.190002 62.690002 333.119995 61.860001 331.390015 60.200001 C 329.660004 58.470001 328.829987 56.400002 328.829987 53.980003 C 328.829987 51.560001 329.660004 49.480003 331.390015 47.82 C 333.119995 46.09 335.190002 45.260002 337.679993 45.260002 C 340.170013 45.260002 342.380005 46.09 344.109985 47.82 C 345.880005 49.450001 346.769989 51.490002 346.799988 53.860001 L 346.859985 53.860001 L 346.859985 71.400002 L 356.48999 71.400002 L 356.48999 36.540001 Z"/>
    <path id="path8" fill="#3b5c8a" stroke="none" d="M 48.669998 61.740002 L 48.669998 54.82 C 45.120003 54.82 41.57 54.830002 38.02 54.82 L 38.02 71.419998 L 70.940002 71.419998 L 70.940002 61.740002 L 48.669998 61.740002 Z"/>
    <g id="Group">
        <path id="path9" fill="#e06a47" stroke="none" d="M 93.470001 64.870003 L 98.190002 71.419998 L 109.330002 71.419998 L 99.120003 57.260002 L 93.470001 64.870003 Z"/>
        <path id="path10" fill="#3b5c8a" stroke="none" d="M 96.879997 36.560001 L 90.379997 45.760002 L 83.870003 36.560001 L 72.669998 36.560001 L 84.639999 53.09 L 71.43 71.419998 L 82.339996 71.419998 L 107.830002 36.560001 L 96.879997 36.560001 Z"/>
    </g>
    <path id="path11" fill="#e06a47" stroke="none" d="M 21.23 42.400002 C 22.029999 41.630001 22.639999 40.990002 23.32 40.420002 C 25.560001 38.540001 26.82 36.100002 27.459999 33.310001 C 27.75 32.060001 27.950001 30.75 27.060001 29.599998 C 25 26.93 22.509998 27.050003 20.849998 29.949997 C 19.790001 31.800003 18.119999 33.140003 16.52 34.530003 C 14.919998 35.920002 13.32 37.240002 11.740002 38.620003 C 8.540001 41.41 5.440001 44.5 3.26 48.18 C 0.549999 52.75 -0.42 58.760002 0.799999 63.959999 C 1.870001 68.520004 6.299999 71.300003 10.82 71.370003 C 15.150002 71.440002 19.48 71.389999 23.82 71.389999 C 25.299999 71.389999 26.779999 71.43 28.259998 71.370003 C 30.900002 71.270004 32.75 69.080002 32.009998 66.550003 C 31.939999 66.300003 31.939999 66.029999 31.91 65.790001 C 34.68 64.669998 35.369999 62.380001 33.939999 59.16 C 36.669998 56.91 36.790001 55.25 34.360001 51.440002 C 34.82 51.440002 35.18 51.440002 35.549999 51.440002 L 54.349998 51.440002 C 56.849998 51.440002 58.879997 49.41 58.879997 46.91 L 58.879997 46.91 C 58.879997 44.41 56.860001 42.390003 54.370003 42.380001 C 45.379997 42.360001 21.279999 42.330002 21.23 42.380001 Z"/>
    <path id="path12" fill="#3b5c8a" stroke="none" d="M 145.979996 50.260002 C 145.979996 41.200001 141.279999 35.810001 133.050003 35.810001 C 128.419998 35.810001 124.679993 37.75 123.300003 40.790001 L 123.300003 23.220001 L 112.990005 23.220001 L 112.990005 71.43 L 123.300003 71.43 L 123.300003 51.860001 C 123.300003 47.780003 125.929993 44.940002 129.729996 44.940002 C 133.529999 44.940002 135.679993 47.43 135.679993 51.510002 L 135.679993 71.43 L 145.990005 71.43 L 145.990005 50.27 Z"/>
    <path id="path13" fill="#3b5c8a" stroke="none" d="M 152.690002 36.560001 L 162.990005 36.560001 L 162.990005 71.419998 L 152.690002 71.419998 Z"/>
    <path id="path14" fill="#3b5c8a" stroke="none" d="M 38.02 23.209999 L 38.02 39.140003 L 48.669998 39.140003 L 48.669998 32.900002 L 70.940002 32.900002 L 70.940002 23.209999 L 38.02 23.209999 Z"/>
    <path id="Hub" fill="#e06a47" fill-rule="evenodd" stroke="none" d="M 469.152344 20.095703 L 469.152344 31.938477 C 469.152344 33.312508 469.114197 34.675613 469.037842 36.027832 C 468.961517 37.380051 468.868835 38.426918 468.759766 39.168457 L 469.152344 39.168457 C 470.112 37.663567 471.420593 36.382248 473.078125 35.324463 C 474.735687 34.266678 476.883942 33.737793 479.522949 33.737793 C 483.62323 33.737793 486.949219 35.340805 489.500977 38.546875 C 492.052734 41.752945 493.328613 46.45293 493.328613 52.646973 C 493.328613 56.812683 492.739746 60.307686 491.562012 63.13208 C 490.384277 65.956474 488.737671 68.082916 486.62207 69.511475 C 484.506531 70.940033 482.052917 71.654297 479.26123 71.654297 C 476.578613 71.654297 474.463074 71.174484 472.914551 70.214844 C 471.366058 69.255203 470.112 68.175629 469.152344 66.976074 L 468.465332 66.976074 L 466.796875 71 L 459.174316 71 L 459.174316 20.095703 Z M 476.316895 41.720215 C 474.572113 41.720215 473.187195 42.080074 472.162109 42.799805 C 471.137054 43.519535 470.390076 44.599113 469.921143 46.038574 C 469.45224 47.478035 469.195984 49.299141 469.152344 51.501953 L 469.152344 52.581543 C 469.152344 56.136574 469.675781 58.85733 470.722656 60.743896 C 471.769531 62.630463 473.677887 63.57373 476.447754 63.57373 C 478.497894 63.57373 480.128174 62.625008 481.338623 60.727539 C 482.549072 58.83007 483.154297 56.092953 483.154297 52.516113 C 483.154297 48.939274 482.54364 46.245777 481.322266 44.435547 C 480.100922 42.625317 478.432465 41.720215 476.316895 41.720215 Z M 452.725586 34.424805 L 452.725586 71 L 445.070313 71 L 443.729004 66.321777 L 443.205566 66.321777 C 442.42041 67.564949 441.438965 68.579102 440.26123 69.364258 C 439.083496 70.149414 437.785797 70.727371 436.368164 71.098145 C 434.9505 71.468918 433.478333 71.654297 431.95166 71.654297 C 429.334442 71.654297 427.055328 71.190842 425.114258 70.263916 C 423.173157 69.33699 421.662842 67.892097 420.583252 65.929199 C 419.503662 63.966301 418.963867 61.414566 418.963867 58.273926 L 418.963867 34.424805 L 428.941895 34.424805 L 428.941895 55.787598 C 428.941895 58.404797 429.410797 60.378574 430.348633 61.708984 C 431.286438 63.039394 432.780426 63.70459 434.830566 63.70459 C 436.858887 63.70459 438.450989 63.241135 439.606934 62.314209 C 440.762848 61.387283 441.575256 60.024178 442.044189 58.224854 C 442.513092 56.425529 442.747559 54.228203 442.747559 51.632813 L 442.747559 34.424805 Z M 411.893524 71 L 401.784637 71 L 401.784637 50.356934 L 382.842743 50.356934 L 382.842743 71 L 372.701141 71 L 372.701141 23.170898 L 382.842743 23.170898 L 382.842743 41.916504 L 401.784637 41.916504 L 401.784637 23.170898 L 411.893524 23.170898 Z"/>
    <text id="text1" visibility="hidden" xml:space="preserve" x="370" y="75" font-family="Open Sans" font-size="67" font-weight="700" fill="#e06a47" letter-spacing="-4.02">Hub</text>
    <path id="Rectangle" fill="#000000" fill-rule="evenodd" stroke="none" d="M 493 -19 L 515 -19 L 515 -37 L 493 -37 Z"/>
</svg>
