<?xml version="1.0" encoding="UTF-8"?>
<!-- Generated by Pixelmator Pro 3.7.1 -->
<svg width="544" height="95" viewBox="0 0 544 95" xmlns="http://www.w3.org/2000/svg">
    <path id="Path" fill="#e06a47" stroke="none" d="M 180.809998 21.900002 C 177.559998 21.900002 174.929993 24.459999 174.929993 27.779999 C 174.929993 31.100002 177.559998 33.59 180.809998 33.59 C 184.059998 33.59 186.690002 31.029999 186.690002 27.779999 C 186.690002 24.529999 184.059998 21.900002 180.809998 21.900002 Z"/>
    <path id="path1" fill="#3b5c8a" stroke="none" d="M 225.899994 41.200001 C 222.649994 37.670002 218.5 35.940002 213.589996 35.940002 C 211.119995 35.940002 208.919998 36.420002 207.160004 37.230003 L 207.160004 46.400002 C 208.509995 45.650002 210.020004 45.27 211.720001 45.27 C 214.210007 45.27 216.289993 46.100002 218.009995 47.830002 C 219.740005 49.490002 220.570007 51.57 220.570007 53.990002 C 220.570007 56.41 219.740005 58.490002 218.009995 60.210003 C 216.279999 61.870003 214.210007 62.700001 211.720001 62.700001 C 209.229996 62.700001 207.020004 61.870003 205.220001 60.210003 C 203.490005 58.480003 202.589996 56.41 202.589996 53.990002 C 202.589996 53.800003 202.589996 37.790001 202.610001 23.209999 L 192.910004 23.209999 L 192.910004 71.410004 L 203.220001 71.410004 L 203.220001 66.849998 C 204.259995 69.889999 208.339996 72.040001 213.589996 72.040001 C 218.5 72.040001 222.649994 70.310005 225.899994 66.849998 C 229.220001 63.32 230.880005 59.030003 230.880005 53.990002 C 230.880005 48.950001 229.220001 44.650002 225.899994 41.200001 Z"/>
    <path id="path2" fill="#e06a47" stroke="none" d="M 241.330002 21.900002 C 238.080002 21.900002 235.449997 24.459999 235.449997 27.779999 C 235.449997 31.100002 238.080002 33.59 241.330002 33.59 C 244.580002 33.59 247.210007 31.029999 247.210007 27.779999 C 247.210007 24.529999 244.580002 21.900002 241.330002 21.900002 Z"/>
    <path id="path3" fill="#3b5c8a" stroke="none" d="M 236.210007 36.560001 L 246.520004 36.560001 L 246.520004 71.419998 L 236.210007 71.419998 Z"/>
    <path id="path4" fill="#3b5c8a" stroke="none" d="M 276.670013 37.290001 C 276.940002 37.030003 277.230011 36.810001 277.5 36.57 L 265.73999 36.57 L 265.73999 23.220001 L 255.710007 23.220001 L 255.710007 36.57 L 251.080002 36.57 L 251.080002 45.91 L 255.710007 45.91 L 255.710007 71.43 L 265.73999 71.43 L 265.73999 45.91 L 271.140015 45.91 C 272.25 42.620003 274.079987 39.730003 276.670013 37.300003 Z"/>
    <path id="path5" fill="#3b5c8a" stroke="none" d="M 293.450012 35.66 C 287.98999 35.66 283.420013 37.32 279.890015 40.710003 C 276.359985 44.030003 274.559998 48.460003 274.559998 53.920002 L 274.559998 54.200001 C 274.559998 59.66 276.290009 64.020004 279.820007 67.340004 C 283.350006 70.590004 287.910004 72.25 293.649994 72.25 C 299.390015 72.25 304.579987 70.110001 308.660004 65.889999 L 302.640015 60.150002 C 300.220001 62.43 297.380005 63.540001 294.130005 63.540001 C 288.670013 63.540001 285.070007 60.84 284.859985 56.690002 L 311.209991 56.690002 C 311.279999 55.650002 311.350006 54.550003 311.350006 53.370003 C 311.350006 48.32 309.690002 44.170002 306.369995 40.780003 C 303.049988 37.390003 298.76001 35.66 293.440002 35.66 Z M 285.01001 49.980003 C 285.290009 46.730003 288.950012 44.170002 293.450012 44.170002 C 297.600006 44.170002 300.98999 46.730003 300.98999 49.980003 L 285.01001 49.980003 Z"/>
    <path id="path6" fill="#3b5c8a" stroke="none" d="M 326.790009 41.330002 L 326.790009 36.560001 L 316.480011 36.560001 L 316.480011 71.419998 L 326.790009 71.419998 L 326.790009 54.41 C 326.790009 48.670002 330.25 45.350002 336.130005 45.350002 C 337.369995 45.350002 338.549988 45.490002 339.589996 45.700001 L 339.589996 36.02 C 338.480011 35.880001 337.579987 35.810001 336.890015 35.810001 C 332.119995 35.810001 328.380005 37.82 326.790009 41.34 Z"/>
    <path id="path7" fill="#3b5c8a" stroke="none" d="M 379.48999 36.560001 L 369.179993 36.560001 L 369.179993 41.120003 C 368.140015 38.080002 364.059998 35.93 358.809998 35.93 C 353.899994 35.93 349.75 37.66 346.429993 41.190002 C 343.179993 44.650002 341.519989 48.940002 341.519989 53.980003 C 341.519989 59.02 343.179993 63.32 346.429993 66.840004 C 349.75 70.300003 353.899994 72.029999 358.809998 72.029999 C 361.329987 72.029999 363.579987 71.529999 365.350006 70.68 L 365.350006 61.510002 C 363.98999 62.290001 362.429993 62.690002 360.679993 62.690002 C 358.190002 62.690002 356.119995 61.860001 354.390015 60.200001 C 352.660004 58.470001 351.829987 56.400002 351.829987 53.980003 C 351.829987 51.560001 352.660004 49.480003 354.390015 47.82 C 356.119995 46.09 358.190002 45.260002 360.679993 45.260002 C 363.170013 45.260002 365.380005 46.09 367.109985 47.82 C 368.880005 49.450001 369.769989 51.490002 369.799988 53.860001 L 369.859985 53.860001 L 369.859985 71.400002 L 379.48999 71.400002 L 379.48999 36.540001 Z"/>
    <path id="path8" fill="#3b5c8a" stroke="none" d="M 71.669998 61.740002 L 71.669998 54.82 C 68.120003 54.82 64.57 54.830002 61.02 54.82 L 61.02 71.419998 L 93.940002 71.419998 L 93.940002 61.740002 L 71.669998 61.740002 Z"/>
    <g id="Group">
        <path id="path9" fill="#e06a47" stroke="none" d="M 116.470001 64.870003 L 121.190002 71.419998 L 132.330002 71.419998 L 122.120003 57.260002 L 116.470001 64.870003 Z"/>
        <path id="path10" fill="#3b5c8a" stroke="none" d="M 119.879997 36.560001 L 113.379997 45.760002 L 106.870003 36.560001 L 95.669998 36.560001 L 107.639999 53.09 L 94.43 71.419998 L 105.339996 71.419998 L 130.830002 36.560001 L 119.879997 36.560001 Z"/>
    </g>
    <path id="path11" fill="#e06a47" stroke="none" d="M 44.23 42.400002 C 45.029999 41.630001 45.639999 40.990002 46.32 40.420002 C 48.560001 38.540001 49.82 36.100002 50.459999 33.310001 C 50.75 32.060001 50.950001 30.75 50.060001 29.599998 C 48 26.93 45.509998 27.050003 43.849998 29.949997 C 42.790001 31.800003 41.119999 33.140003 39.52 34.530003 C 37.919998 35.920002 36.32 37.240002 34.740002 38.620003 C 31.540001 41.41 28.440001 44.5 26.26 48.18 C 23.549999 52.75 22.58 58.760002 23.799999 63.959999 C 24.870001 68.520004 29.299999 71.300003 33.82 71.370003 C 38.150002 71.440002 42.48 71.389999 46.82 71.389999 C 48.299999 71.389999 49.779999 71.43 51.259998 71.370003 C 53.900002 71.270004 55.75 69.080002 55.009998 66.550003 C 54.939999 66.300003 54.939999 66.029999 54.91 65.790001 C 57.68 64.669998 58.369999 62.380001 56.939999 59.16 C 59.669998 56.91 59.790001 55.25 57.360001 51.440002 C 57.82 51.440002 58.18 51.440002 58.549999 51.440002 L 77.349998 51.440002 C 79.849998 51.440002 81.879997 49.41 81.879997 46.91 L 81.879997 46.91 C 81.879997 44.41 79.860001 42.390003 77.370003 42.380001 C 68.379997 42.360001 44.279999 42.330002 44.23 42.380001 Z"/>
    <path id="path12" fill="#3b5c8a" stroke="none" d="M 168.979996 50.260002 C 168.979996 41.200001 164.279999 35.810001 156.050003 35.810001 C 151.419998 35.810001 147.679993 37.75 146.300003 40.790001 L 146.300003 23.220001 L 135.990005 23.220001 L 135.990005 71.43 L 146.300003 71.43 L 146.300003 51.860001 C 146.300003 47.780003 148.929993 44.940002 152.729996 44.940002 C 156.529999 44.940002 158.679993 47.43 158.679993 51.510002 L 158.679993 71.43 L 168.990005 71.43 L 168.990005 50.27 Z"/>
    <path id="path13" fill="#3b5c8a" stroke="none" d="M 175.690002 36.560001 L 185.990005 36.560001 L 185.990005 71.419998 L 175.690002 71.419998 Z"/>
    <path id="path14" fill="#3b5c8a" stroke="none" d="M 61.02 23.209999 L 61.02 39.140003 L 71.669998 39.140003 L 71.669998 32.900002 L 93.940002 32.900002 L 93.940002 23.209999 L 61.02 23.209999 Z"/>
    <path id="Hub" fill="#e06a47" fill-rule="evenodd" stroke="none" d="M 492.152344 20.095703 L 492.152344 31.938477 C 492.152344 33.312508 492.114197 34.675613 492.037842 36.027832 C 491.961517 37.380051 491.868835 38.426918 491.759766 39.168457 L 492.152344 39.168457 C 493.112 37.663567 494.420593 36.382248 496.078125 35.324463 C 497.735687 34.266678 499.883942 33.737793 502.522949 33.737793 C 506.62323 33.737793 509.949219 35.340805 512.500977 38.546875 C 515.052734 41.752945 516.328613 46.45293 516.328613 52.646973 C 516.328613 56.812683 515.739746 60.307686 514.562012 63.13208 C 513.384277 65.956474 511.737671 68.082916 509.62207 69.511475 C 507.506531 70.940033 505.052917 71.654297 502.26123 71.654297 C 499.578613 71.654297 497.463074 71.174484 495.914551 70.214844 C 494.366058 69.255203 493.112 68.175629 492.152344 66.976074 L 491.465332 66.976074 L 489.796875 71 L 482.174316 71 L 482.174316 20.095703 Z M 499.316895 41.720215 C 497.572113 41.720215 496.187195 42.080074 495.162109 42.799805 C 494.137054 43.519535 493.390076 44.599113 492.921143 46.038574 C 492.45224 47.478035 492.195984 49.299141 492.152344 51.501953 L 492.152344 52.581543 C 492.152344 56.136574 492.675781 58.85733 493.722656 60.743896 C 494.769531 62.630463 496.677887 63.57373 499.447754 63.57373 C 501.497894 63.57373 503.128174 62.625008 504.338623 60.727539 C 505.549072 58.83007 506.154297 56.092953 506.154297 52.516113 C 506.154297 48.939274 505.54364 46.245777 504.322266 44.435547 C 503.100922 42.625317 501.432465 41.720215 499.316895 41.720215 Z M 475.725586 34.424805 L 475.725586 71 L 468.070313 71 L 466.729004 66.321777 L 466.205566 66.321777 C 465.42041 67.564949 464.438965 68.579102 463.26123 69.364258 C 462.083496 70.149414 460.785797 70.727371 459.368164 71.098145 C 457.9505 71.468918 456.478333 71.654297 454.95166 71.654297 C 452.334442 71.654297 450.055328 71.190842 448.114258 70.263916 C 446.173157 69.33699 444.662842 67.892097 443.583252 65.929199 C 442.503662 63.966301 441.963867 61.414566 441.963867 58.273926 L 441.963867 34.424805 L 451.941895 34.424805 L 451.941895 55.787598 C 451.941895 58.404797 452.410797 60.378574 453.348633 61.708984 C 454.286438 63.039394 455.780426 63.70459 457.830566 63.70459 C 459.858887 63.70459 461.450989 63.241135 462.606934 62.314209 C 463.762848 61.387283 464.575256 60.024178 465.044189 58.224854 C 465.513092 56.425529 465.747559 54.228203 465.747559 51.632813 L 465.747559 34.424805 Z M 434.893524 71 L 424.784637 71 L 424.784637 50.356934 L 405.842743 50.356934 L 405.842743 71 L 395.701141 71 L 395.701141 23.170898 L 405.842743 23.170898 L 405.842743 41.916504 L 424.784637 41.916504 L 424.784637 23.170898 L 434.893524 23.170898 Z"/>
    <text id="text1" visibility="hidden" xml:space="preserve" x="393.681611" y="73" font-family="Open Sans" font-size="67" font-weight="700" fill="#e06a47" letter-spacing="-4.02">Hub</text>
    <path id="Rectangle" fill="#000000" fill-rule="evenodd" stroke="none" d="M 516 -19 L 538 -19 L 538 -37 L 516 -37 Z"/>
</svg>
