<?xml version="1.0" encoding="utf-8"?><!-- Uploaded to: SVG Repo, www.svgrepo.com, Generator: SVG Repo Mixer Tools -->
<svg width="800px" height="800px" viewBox="0 0 24 24" fill="none" xmlns="http://www.w3.org/2000/svg">
<path fill-rule="evenodd" clip-rule="evenodd" d="M4 4H15.0607L20 8.93934V20H4V4ZM5.5 5.5V11.5H8.01421L8.02556 5.5H5.5ZM9.52556 5.5L9.51421 11.5H18.5V10H14V5.5H9.52556ZM15.5 6.56066L17.4393 8.5H15.5V6.56066ZM18.5 13H9.51138L9.50759 15H18.5V13ZM18.5 16.5H9.50476L9.50097 18.5H18.5V16.5ZM8.00097 18.5L8.00475 16.5H5.5V18.5H8.00097ZM5.5 15H8.00759L8.01137 13H5.5V15Z" fill="#fff"/>
</svg>