<?xml version="1.0" encoding="iso-8859-1"?>

<svg id="timelapse_viewer" xmlns="http://www.w3.org/2000/svg" width="54px" height="54px">
<g viewBox="0 0 54.014 54.014">
    <g>
        <g>
            <path d="M49.122,5.845H9.134c-1.664,0-3.136,0.838-4.02,2.11c0.791-0.549,1.748-0.874,2.782-0.874h39.989
                c2.697,0,4.893,2.195,4.893,4.895v28.927c0,1.033-0.322,1.992-0.873,2.783c1.273-0.885,2.109-2.354,2.109-4.021V10.74
                C54.016,8.041,51.82,5.845,49.122,5.845z"/>
            <path d="M46.85,8.119H6.861c-1.666,0-3.135,0.836-4.021,2.11c0.791-0.551,1.75-0.874,2.784-0.874h39.988
                c2.696,0,4.894,2.194,4.894,4.895v28.927c0,1.033-0.324,1.992-0.873,2.783c1.272-0.883,2.109-2.355,2.109-4.021V13.014
                C51.743,10.314,49.547,8.119,46.85,8.119z"/>
            <path d="M45.527,11.073H3.261C1.463,11.073,0,12.536,0,14.333v30.574c0,1.799,1.463,3.262,3.261,3.262h42.266
                c1.799,0,3.262-1.463,3.262-3.262V14.333C48.789,12.537,47.324,11.073,45.527,11.073z M46.09,44.909
                c0,0.309-0.253,0.562-0.563,0.562H3.26c-0.31,0-0.563-0.254-0.563-0.562V27.708l4.855-4.854c0.526-0.527,0.526-1.381,0-1.908
                c-0.527-0.527-1.382-0.527-1.908,0l-2.947,2.948v-1.707l4.896-4.898c0.526-0.526,0.526-1.38,0-1.907
                c-0.527-0.526-1.382-0.526-1.908,0l-2.988,2.99v-4.037c0-0.311,0.253-0.562,0.562-0.562h42.264c0.312,0,0.562,0.253,0.562,0.562
                L46.09,44.909L46.09,44.909z"/>
            <path d="M33.064,24.699c-0.229-0.39-0.633-0.641-1.084-0.667c-0.443-0.023-0.885,0.172-1.156,0.532l-7.201,9.516l-6.451-6.451
                c-0.286-0.287-0.684-0.432-1.086-0.389c-0.401,0.039-0.766,0.256-0.989,0.592l-9.19,13.742c-0.276,0.414-0.304,0.946-0.068,1.385
                c0.234,0.438,0.691,0.713,1.188,0.713h34.736c0.481,0,0.928-0.256,1.17-0.676c0.24-0.418,0.238-0.935-0.004-1.351L33.064,24.699z
                    M9.552,40.976l6.872-10.277l6.384,6.383c0.275,0.275,0.657,0.422,1.045,0.394c0.391-0.026,0.748-0.224,0.983-0.533l6.913-9.133
                l7.665,13.168L9.552,40.976L9.552,40.976z"/>
            <path d="M29.329,22.849c0.509,0,0.999-0.075,1.459-0.224c0.938,0.225,1.985,0.214,2.925-0.026
                c0.313,0.087,0.643,0.131,0.971,0.131c0.069,0,0.136-0.016,0.203-0.02c-0.404-0.646-0.642-1.405-0.642-2.223
                c0-0.021,0.003-0.043,0.004-0.064c-0.082-0.026-0.164-0.053-0.239-0.094c-0.134-0.075-0.293-0.085-0.436-0.027
                c-0.816,0.331-1.875,0.338-2.695,0.024c-0.14-0.054-0.293-0.043-0.423,0.028c-0.313,0.171-0.714,0.265-1.127,0.265
                c-0.981,0-1.666-0.501-1.666-0.952c0-0.429,0.625-0.912,1.558-0.948c0.192-0.008,0.364-0.125,0.442-0.302
                c0.322-0.735,1.365-1.249,2.536-1.249c1.137,0,2.171,0.497,2.516,1.21c0.014,0.028,0.038,0.047,0.057,0.072
                c0.382-0.687,0.947-1.255,1.632-1.639c-0.027-0.017-0.054-0.034-0.082-0.048c-0.879-1.145-2.408-1.824-4.121-1.824
                c-1.623,0-3.104,0.625-4.006,1.68c-1.657,0.395-2.76,1.6-2.76,3.047C25.433,21.452,27.144,22.849,29.329,22.849z"/>
            <path d="M39.557,16.905c-0.711,0-1.377,0.188-1.957,0.514c-0.647,0.365-1.188,0.905-1.549,1.559
                c-0.31,0.557-0.486,1.193-0.496,1.873c0,0.021-0.004,0.04-0.004,0.061c0,0.775,0.227,1.498,0.607,2.112
                c0.708,1.134,1.964,1.893,3.396,1.893c2.209,0,4.006-1.796,4.006-4.005S41.766,16.905,39.557,16.905z M39.557,22.352
                c-0.418,0-0.793-0.183-1.057-0.468c-0.236-0.257-0.388-0.598-0.388-0.975c0-0.659,0.446-1.21,1.052-1.381
                c0.125-0.036,0.254-0.062,0.391-0.062c0.795,0,1.441,0.647,1.441,1.442S40.352,22.352,39.557,22.352z"/>
        </g>
    </g>
</g>
</svg>