<?xml version="1.0" encoding="iso-8859-1"?>

<svg id="timeline_explorer" xmlns="http://www.w3.org/2000/svg" width="68px" height="68px">
<g xmlns="http://www.w3.org/2000/svg" viewBox="0 0 66 85" x="0px" y="0px"><path d="M419,545 L435,545 C436.104569,545 437,545.895431 437,547 L437,555 C437,556.104569 436.104569,557 435,557 L419,557 C417.895431,557 417,556.104569 417,555 L417,547 C417,545.895431 417.895431,545 419,545 Z M465,557 L481,557 C482.104569,557 483,557.895431 483,559 L483,567 C483,568.104569 482.104569,569 481,569 L465,569 C463.895431,569 463,568.104569 463,567 L463,559 C463,557.895431 463.895431,557 465,557 Z M419,573 L435,573 C436.104569,573 437,573.895431 437,575 L437,583 C437,584.104569 436.104569,585 435,585 L419,585 C417.895431,585 417,584.104569 417,583 L417,575 C417,573.895431 417.895431,573 419,573 Z M465,585 L481,585 C482.104569,585 483,585.895431 483,587 L483,595 C483,596.104569 482.104569,597 481,597 L465,597 C463.895431,597 463,596.104569 463,595 L463,587 C463,585.895431 463.895431,585 465,585 Z M452,565 L452,589 L460,589 L460,593 L452,593 L452,602 C452,603.104569 451.104569,604 450,604 C448.895431,604 448,603.104569 448,602 L448,581 L440,581 L440,577 L448,577 L448,553 L440,553 L440,549 L448,549 L448,538 C448,536.895431 448.895431,536 450,536 C451.104569,536 452,536.895431 452,538 L452,561 L460,561 L460,565 L452,565 Z" transform="translate(-417 -536)"/></g>
</svg>