<?xml version="1.0" encoding="UTF-8"?>
<!-- Generated by Pixelmator Pro 3.7.1 -->
<svg width="517" height="95" viewBox="0 0 517 95" xmlns="http://www.w3.org/2000/svg">
    <path id="Path" fill="#e06a47" stroke="none" d="M 157.809998 21.900002 C 154.559998 21.900002 151.929993 24.459999 151.929993 27.779999 C 151.929993 31.100002 154.559998 33.59 157.809998 33.59 C 161.059998 33.59 163.690002 31.029999 163.690002 27.779999 C 163.690002 24.529999 161.059998 21.900002 157.809998 21.900002 Z"/>
    <path id="path1" fill="#3b5c8a" stroke="none" d="M 202.899994 41.200001 C 199.649994 37.670002 195.5 35.940002 190.589996 35.940002 C 188.119995 35.940002 185.919998 36.420002 184.160004 37.230003 L 184.160004 46.400002 C 185.509995 45.650002 187.020004 45.27 188.720001 45.27 C 191.210007 45.27 193.289993 46.100002 195.009995 47.830002 C 196.740005 49.490002 197.570007 51.57 197.570007 53.990002 C 197.570007 56.41 196.740005 58.490002 195.009995 60.210003 C 193.279999 61.870003 191.210007 62.700001 188.720001 62.700001 C 186.229996 62.700001 184.020004 61.870003 182.220001 60.210003 C 180.490005 58.480003 179.589996 56.41 179.589996 53.990002 C 179.589996 53.800003 179.589996 37.790001 179.610001 23.209999 L 169.910004 23.209999 L 169.910004 71.410004 L 180.220001 71.410004 L 180.220001 66.849998 C 181.259995 69.889999 185.339996 72.040001 190.589996 72.040001 C 195.5 72.040001 199.649994 70.310005 202.899994 66.849998 C 206.220001 63.32 207.880005 59.030003 207.880005 53.990002 C 207.880005 48.950001 206.220001 44.650002 202.899994 41.200001 Z"/>
    <path id="path2" fill="#e06a47" stroke="none" d="M 218.330002 21.900002 C 215.080002 21.900002 212.449997 24.459999 212.449997 27.779999 C 212.449997 31.100002 215.080002 33.59 218.330002 33.59 C 221.580002 33.59 224.210007 31.029999 224.210007 27.779999 C 224.210007 24.529999 221.580002 21.900002 218.330002 21.900002 Z"/>
    <path id="path3" fill="#3b5c8a" stroke="none" d="M 213.210007 36.560001 L 223.520004 36.560001 L 223.520004 71.419998 L 213.210007 71.419998 Z"/>
    <path id="path4" fill="#3b5c8a" stroke="none" d="M 253.670013 37.290001 C 253.940002 37.030003 254.230011 36.810001 254.5 36.57 L 242.73999 36.57 L 242.73999 23.220001 L 232.710022 23.220001 L 232.710022 36.57 L 228.080017 36.57 L 228.080017 45.91 L 232.710022 45.91 L 232.710022 71.43 L 242.73999 71.43 L 242.73999 45.91 L 248.140015 45.91 C 249.25 42.620003 251.079987 39.730003 253.670013 37.300003 Z"/>
    <path id="path5" fill="#3b5c8a" stroke="none" d="M 270.450012 35.66 C 264.98999 35.66 260.420013 37.32 256.890015 40.710003 C 253.359985 44.030003 251.559998 48.460003 251.559998 53.920002 L 251.559998 54.200001 C 251.559998 59.66 253.290009 64.020004 256.820007 67.340004 C 260.350006 70.590004 264.910004 72.25 270.649994 72.25 C 276.390015 72.25 281.579987 70.110001 285.660004 65.889999 L 279.640015 60.150002 C 277.220001 62.43 274.380005 63.540001 271.130005 63.540001 C 265.670013 63.540001 262.070007 60.84 261.859985 56.690002 L 288.209991 56.690002 C 288.279999 55.650002 288.350006 54.550003 288.350006 53.370003 C 288.350006 48.32 286.690002 44.170002 283.369995 40.780003 C 280.049988 37.390003 275.76001 35.66 270.440002 35.66 Z M 262.01001 49.980003 C 262.290009 46.730003 265.950012 44.170002 270.450012 44.170002 C 274.600006 44.170002 277.98999 46.730003 277.98999 49.980003 L 262.01001 49.980003 Z"/>
    <path id="path6" fill="#3b5c8a" stroke="none" d="M 303.790009 41.330002 L 303.790009 36.560001 L 293.480011 36.560001 L 293.480011 71.419998 L 303.790009 71.419998 L 303.790009 54.41 C 303.790009 48.670002 307.25 45.350002 313.130005 45.350002 C 314.369995 45.350002 315.549988 45.490002 316.589996 45.700001 L 316.589996 36.02 C 315.480011 35.880001 314.579987 35.810001 313.890015 35.810001 C 309.119995 35.810001 305.380005 37.82 303.790009 41.34 Z"/>
    <path id="path7" fill="#3b5c8a" stroke="none" d="M 356.48999 36.560001 L 346.179993 36.560001 L 346.179993 41.120003 C 345.140015 38.080002 341.059998 35.93 335.809998 35.93 C 330.899994 35.93 326.75 37.66 323.429993 41.190002 C 320.179993 44.650002 318.519989 48.940002 318.519989 53.980003 C 318.519989 59.02 320.179993 63.32 323.429993 66.840004 C 326.75 70.300003 330.899994 72.029999 335.809998 72.029999 C 338.329987 72.029999 340.579987 71.529999 342.350006 70.68 L 342.350006 61.510002 C 340.98999 62.290001 339.429993 62.690002 337.679993 62.690002 C 335.190002 62.690002 333.119995 61.860001 331.390015 60.200001 C 329.660004 58.470001 328.829987 56.400002 328.829987 53.980003 C 328.829987 51.560001 329.660004 49.480003 331.390015 47.82 C 333.119995 46.09 335.190002 45.260002 337.679993 45.260002 C 340.170013 45.260002 342.380005 46.09 344.109985 47.82 C 345.880005 49.450001 346.769989 51.490002 346.799988 53.860001 L 346.859985 53.860001 L 346.859985 71.400002 L 356.48999 71.400002 L 356.48999 36.540001 Z"/>
    <path id="path8" fill="#3b5c8a" stroke="none" d="M 48.669998 61.740002 L 48.669998 54.82 C 45.120003 54.82 41.57 54.830002 38.019997 54.82 L 38.019997 71.419998 L 70.940002 71.419998 L 70.940002 61.740002 L 48.669998 61.740002 Z"/>
    <g id="Group">
        <path id="path9" fill="#e06a47" stroke="none" d="M 93.470001 64.870003 L 98.190002 71.419998 L 109.330002 71.419998 L 99.120003 57.260002 L 93.470001 64.870003 Z"/>
        <path id="path10" fill="#3b5c8a" stroke="none" d="M 96.879997 36.560001 L 90.379997 45.760002 L 83.870003 36.560001 L 72.669998 36.560001 L 84.639999 53.09 L 71.43 71.419998 L 82.339996 71.419998 L 107.830002 36.560001 L 96.879997 36.560001 Z"/>
    </g>
    <path id="path11" fill="#e06a47" stroke="none" d="M 21.23 42.400002 C 22.029999 41.630001 22.639999 40.990002 23.32 40.420002 C 25.560001 38.540001 26.82 36.100002 27.459999 33.310001 C 27.75 32.060001 27.950001 30.75 27.060001 29.599998 C 25 26.93 22.509998 27.050003 20.849998 29.949997 C 19.790001 31.800003 18.119999 33.140003 16.52 34.530003 C 14.919998 35.920002 13.32 37.240002 11.740002 38.620003 C 8.540001 41.41 5.439999 44.5 3.26 48.18 C 0.549999 52.75 -0.42 58.760002 0.799999 63.959999 C 1.870001 68.520004 6.299999 71.300003 10.82 71.370003 C 15.150002 71.440002 19.48 71.389999 23.82 71.389999 C 25.299999 71.389999 26.779999 71.43 28.259998 71.370003 C 30.900002 71.270004 32.75 69.080002 32.009998 66.550003 C 31.939999 66.300003 31.939999 66.029999 31.91 65.790001 C 34.68 64.669998 35.369999 62.380001 33.939999 59.16 C 36.669998 56.91 36.790001 55.25 34.360001 51.440002 C 34.82 51.440002 35.18 51.440002 35.549999 51.440002 L 54.349998 51.440002 C 56.849998 51.440002 58.879997 49.41 58.879997 46.91 L 58.879997 46.91 C 58.879997 44.41 56.860001 42.390003 54.370003 42.380001 C 45.379997 42.360001 21.279999 42.330002 21.23 42.380001 Z"/>
    <path id="path12" fill="#3b5c8a" stroke="none" d="M 145.979996 50.260002 C 145.979996 41.200001 141.279999 35.810001 133.050003 35.810001 C 128.419998 35.810001 124.679993 37.75 123.300003 40.790001 L 123.300003 23.220001 L 112.990005 23.220001 L 112.990005 71.43 L 123.300003 71.43 L 123.300003 51.860001 C 123.300003 47.780003 125.929993 44.940002 129.729996 44.940002 C 133.529999 44.940002 135.679993 47.43 135.679993 51.510002 L 135.679993 71.43 L 145.990005 71.43 L 145.990005 50.27 Z"/>
    <path id="path13" fill="#3b5c8a" stroke="none" d="M 152.690002 36.560001 L 162.990005 36.560001 L 162.990005 71.419998 L 152.690002 71.419998 Z"/>
    <path id="path14" fill="#3b5c8a" stroke="none" d="M 38.019997 23.209999 L 38.019997 39.140003 L 48.669998 39.140003 L 48.669998 32.900002 L 70.940002 32.900002 L 70.940002 23.209999 L 38.019997 23.209999 Z"/>
    <path id="Apps" fill="#e06a47" fill-rule="evenodd" stroke="none" d="M 516.714905 60.138672 C 516.714905 62.625015 516.13147 64.724197 514.964661 66.436279 C 513.797852 68.148361 512.058472 69.446045 509.746643 70.329346 C 507.434814 71.212646 504.555908 71.654297 501.109924 71.654297 C 498.558167 71.654297 496.371704 71.490723 494.550598 71.163574 C 492.729492 70.836426 490.891968 70.291183 489.038147 69.527832 L 489.038147 61.283691 C 491.022827 62.177902 493.154785 62.913979 495.433899 63.491943 C 497.713013 64.069908 499.714111 64.358887 501.437073 64.358887 C 503.378174 64.358887 504.768555 64.069908 505.608215 63.491943 C 506.447876 62.913979 506.867737 62.15609 506.867737 61.218262 C 506.867737 60.607582 506.69873 60.056885 506.360657 59.566162 C 506.022583 59.075439 505.297424 58.519291 504.18512 57.897705 C 503.072815 57.276119 501.328003 56.463711 498.950745 55.460449 C 496.660706 54.500809 494.779602 53.530277 493.307434 52.548828 C 491.835266 51.567379 490.744751 50.406013 490.03595 49.064697 C 489.327148 47.723381 488.972717 46.016773 488.972717 43.944824 C 488.972717 40.564274 490.286743 38.017994 492.914856 36.305908 C 495.542969 34.593822 499.059753 33.737793 503.465393 33.737793 C 505.733643 33.737793 507.898254 33.966793 509.95929 34.424805 C 512.020325 34.882816 514.141357 35.613438 516.322327 36.616699 L 513.312561 43.813965 C 511.502319 43.028805 509.795715 42.385418 508.192688 41.883789 C 506.589661 41.38216 504.959351 41.131348 503.301819 41.131348 C 501.840576 41.131348 500.739136 41.327633 499.99762 41.720215 C 499.256104 42.112797 498.885315 42.712563 498.885315 43.519531 C 498.885315 44.108402 499.076172 44.631832 499.457825 45.089844 C 499.839478 45.547855 500.581055 46.054928 501.682434 46.611084 C 502.783813 47.16724 504.403198 47.881508 506.540588 48.753906 C 508.612549 49.604496 510.411865 50.49324 511.938538 51.420166 C 513.46521 52.347092 514.642944 53.4921 515.471741 54.855225 C 516.300537 56.218349 516.714905 57.979481 516.714905 60.138672 Z M 473.167511 33.737793 C 477.289612 33.737793 480.621033 35.340805 483.161896 38.546875 C 485.702759 41.752945 486.973206 46.45293 486.973206 52.646973 C 486.973206 56.790874 486.373413 60.274971 485.173889 63.099365 C 483.974304 65.923759 482.316772 68.055656 480.201202 69.495117 C 478.085632 70.934578 475.65387 71.654297 472.905792 71.654297 C 471.139191 71.654297 469.623413 71.430748 468.358429 70.983643 C 467.093445 70.536537 466.013885 69.95858 465.119659 69.249756 C 464.225464 68.540932 463.451233 67.783043 462.796906 66.976074 L 462.273468 66.976074 C 462.447968 67.848473 462.578796 68.742676 462.666046 69.658691 C 462.753296 70.574707 462.796906 71.46891 462.796906 72.341309 L 462.796906 87.095703 L 452.818878 87.095703 L 452.818878 34.424805 L 460.932159 34.424805 L 462.338898 39.168457 L 462.796906 39.168457 C 463.451233 38.187008 464.247253 37.281906 465.185089 36.453125 C 466.122925 35.624344 467.251587 34.964603 468.571075 34.473877 C 469.890594 33.98315 471.422729 33.737793 473.167511 33.737793 Z M 469.961456 41.720215 C 468.216675 41.720215 466.831757 42.080074 465.806671 42.799805 C 464.781616 43.519535 464.034637 44.599113 463.565704 46.038574 C 463.096802 47.478035 462.840515 49.299141 462.796906 51.501953 L 462.796906 52.581543 C 462.796906 54.937023 463.020447 56.93261 463.46756 58.568359 C 463.914673 60.204109 464.667114 61.447262 465.724884 62.297852 C 466.782684 63.148441 468.238464 63.57373 470.092316 63.57373 C 471.619019 63.57373 472.873077 63.148441 473.854523 62.297852 C 474.835999 61.447262 475.572052 60.198658 476.062775 58.552002 C 476.553497 56.905346 476.798859 54.893402 476.798859 52.516113 C 476.798859 48.939274 476.242737 46.245777 475.130402 44.435547 C 474.018097 42.625317 472.295135 41.720215 469.961456 41.720215 Z M 434.789093 33.737793 C 438.911163 33.737793 442.242615 35.340805 444.783478 38.546875 C 447.324341 41.752945 448.594757 46.45293 448.594757 52.646973 C 448.594757 56.790874 447.994995 60.274971 446.795441 63.099365 C 445.595886 65.923759 443.938354 68.055656 441.822784 69.495117 C 439.707214 70.934578 437.275421 71.654297 434.527374 71.654297 C 432.760742 71.654297 431.244995 71.430748 429.980011 70.983643 C 428.715027 70.536537 427.635437 69.95858 426.741241 69.249756 C 425.847015 68.540932 425.072784 67.783043 424.418488 66.976074 L 423.89505 66.976074 C 424.069519 67.848473 424.200378 68.742676 424.287628 69.658691 C 424.374847 70.574707 424.418488 71.46891 424.418488 72.341309 L 424.418488 87.095703 L 414.44046 87.095703 L 414.44046 34.424805 L 422.553741 34.424805 L 423.96048 39.168457 L 424.418488 39.168457 C 425.072784 38.187008 425.868835 37.281906 426.806671 36.453125 C 427.744507 35.624344 428.873138 34.964603 430.192657 34.473877 C 431.512146 33.98315 433.044281 33.737793 434.789093 33.737793 Z M 431.583038 41.720215 C 429.838226 41.720215 428.453308 42.080074 427.428253 42.799805 C 426.403168 43.519535 425.656189 44.599113 425.187286 46.038574 C 424.718353 47.478035 424.462097 49.299141 424.418488 51.501953 L 424.418488 52.581543 C 424.418488 54.937023 424.642029 56.93261 425.089142 58.568359 C 425.536224 60.204109 426.288666 61.447262 427.346466 62.297852 C 428.404236 63.148441 429.860046 63.57373 431.713898 63.57373 C 433.240601 63.57373 434.494629 63.148441 435.476105 62.297852 C 436.45755 61.447262 437.193604 60.198658 437.684357 58.552002 C 438.175079 56.905346 438.420441 54.893402 438.420441 52.516113 C 438.420441 48.939274 437.864288 46.245777 436.751984 44.435547 C 435.639648 42.625317 433.916687 41.720215 431.583038 41.720215 Z M 402.299316 71 L 398.831543 59.615234 L 381.394531 59.615234 L 377.926758 71 L 367 71 L 383.880859 22.974609 L 396.279785 22.974609 L 413.226074 71 Z M 396.410645 51.109375 L 392.942871 39.986328 C 392.724762 39.244789 392.435791 38.290615 392.075928 37.123779 C 391.716064 35.956944 391.356201 34.768318 390.996338 33.557861 C 390.636475 32.347404 390.347504 31.29509 390.129395 30.400879 C 389.911285 31.29509 389.61142 32.401932 389.229736 33.721436 C 388.848053 35.040939 388.482758 36.289543 388.133789 37.467285 C 387.784821 38.645027 387.534027 39.484699 387.381348 39.986328 L 383.946289 51.109375 Z"/>
    <text id="text1" visibility="hidden" xml:space="preserve" x="364" y="75" font-family="Open Sans" font-size="67" font-weight="700" fill="#e06a47" letter-spacing="-4.02">Apps</text>
    <path id="Rectangle" fill="#000000" fill-rule="evenodd" stroke="none" d="M 517 -21 L 539 -21 L 539 -39 L 517 -39 Z"/>
</svg>
