<?xml version="1.0" encoding="UTF-8"?>
<!-- Generated by Pixelmator Pro 3.7.1 -->
<svg width="567" height="95" viewBox="0 0 567 95" xmlns="http://www.w3.org/2000/svg">
    <path id="Path" fill="#e06a47" stroke="none" d="M 185.809998 21.900002 C 182.559998 21.900002 179.929993 24.459999 179.929993 27.779999 C 179.929993 31.100002 182.559998 33.59 185.809998 33.59 C 189.059998 33.59 191.690002 31.029999 191.690002 27.779999 C 191.690002 24.529999 189.059998 21.900002 185.809998 21.900002 Z"/>
    <path id="path1" fill="#3b5c8a" stroke="none" d="M 230.899994 41.200001 C 227.649994 37.670002 223.5 35.940002 218.589996 35.940002 C 216.119995 35.940002 213.919998 36.420002 212.160004 37.230003 L 212.160004 46.400002 C 213.509995 45.650002 215.020004 45.27 216.720001 45.27 C 219.210007 45.27 221.289993 46.100002 223.009995 47.830002 C 224.740005 49.490002 225.570007 51.57 225.570007 53.990002 C 225.570007 56.41 224.740005 58.490002 223.009995 60.210003 C 221.279999 61.870003 219.210007 62.700001 216.720001 62.700001 C 214.229996 62.700001 212.020004 61.870003 210.220001 60.210003 C 208.490005 58.480003 207.589996 56.41 207.589996 53.990002 C 207.589996 53.800003 207.589996 37.790001 207.610001 23.209999 L 197.910004 23.209999 L 197.910004 71.410004 L 208.220001 71.410004 L 208.220001 66.849998 C 209.259995 69.889999 213.339996 72.040001 218.589996 72.040001 C 223.5 72.040001 227.649994 70.310005 230.899994 66.849998 C 234.220001 63.32 235.880005 59.030003 235.880005 53.990002 C 235.880005 48.950001 234.220001 44.650002 230.899994 41.200001 Z"/>
    <path id="path2" fill="#e06a47" stroke="none" d="M 246.330002 21.900002 C 243.080002 21.900002 240.449997 24.459999 240.449997 27.779999 C 240.449997 31.100002 243.080002 33.59 246.330002 33.59 C 249.580002 33.59 252.210007 31.029999 252.210007 27.779999 C 252.210007 24.529999 249.580002 21.900002 246.330002 21.900002 Z"/>
    <path id="path3" fill="#3b5c8a" stroke="none" d="M 241.210007 36.560001 L 251.520004 36.560001 L 251.520004 71.419998 L 241.210007 71.419998 Z"/>
    <path id="path4" fill="#3b5c8a" stroke="none" d="M 281.670013 37.290001 C 281.940002 37.030003 282.230011 36.810001 282.5 36.57 L 270.73999 36.57 L 270.73999 23.220001 L 260.710022 23.220001 L 260.710022 36.57 L 256.080017 36.57 L 256.080017 45.91 L 260.710022 45.91 L 260.710022 71.43 L 270.73999 71.43 L 270.73999 45.91 L 276.140015 45.91 C 277.25 42.620003 279.079987 39.730003 281.670013 37.300003 Z"/>
    <path id="path5" fill="#3b5c8a" stroke="none" d="M 298.450012 35.66 C 292.98999 35.66 288.420013 37.32 284.890015 40.710003 C 281.359985 44.030003 279.559998 48.460003 279.559998 53.920002 L 279.559998 54.200001 C 279.559998 59.66 281.290009 64.020004 284.820007 67.340004 C 288.350006 70.590004 292.910004 72.25 298.649994 72.25 C 304.390015 72.25 309.579987 70.110001 313.660004 65.889999 L 307.640015 60.150002 C 305.220001 62.43 302.380005 63.540001 299.130005 63.540001 C 293.670013 63.540001 290.070007 60.84 289.859985 56.690002 L 316.209991 56.690002 C 316.279999 55.650002 316.350006 54.550003 316.350006 53.370003 C 316.350006 48.32 314.690002 44.170002 311.369995 40.780003 C 308.049988 37.390003 303.76001 35.66 298.440002 35.66 Z M 290.01001 49.980003 C 290.290009 46.730003 293.950012 44.170002 298.450012 44.170002 C 302.600006 44.170002 305.98999 46.730003 305.98999 49.980003 L 290.01001 49.980003 Z"/>
    <path id="path6" fill="#3b5c8a" stroke="none" d="M 331.790009 41.330002 L 331.790009 36.560001 L 321.480011 36.560001 L 321.480011 71.419998 L 331.790009 71.419998 L 331.790009 54.41 C 331.790009 48.670002 335.25 45.350002 341.130005 45.350002 C 342.369995 45.350002 343.549988 45.490002 344.589996 45.700001 L 344.589996 36.02 C 343.480011 35.880001 342.579987 35.810001 341.890015 35.810001 C 337.119995 35.810001 333.380005 37.82 331.790009 41.34 Z"/>
    <path id="path7" fill="#3b5c8a" stroke="none" d="M 384.48999 36.560001 L 374.179993 36.560001 L 374.179993 41.120003 C 373.140015 38.080002 369.059998 35.93 363.809998 35.93 C 358.899994 35.93 354.75 37.66 351.429993 41.190002 C 348.179993 44.650002 346.519989 48.940002 346.519989 53.980003 C 346.519989 59.02 348.179993 63.32 351.429993 66.840004 C 354.75 70.300003 358.899994 72.029999 363.809998 72.029999 C 366.329987 72.029999 368.579987 71.529999 370.350006 70.68 L 370.350006 61.510002 C 368.98999 62.290001 367.429993 62.690002 365.679993 62.690002 C 363.190002 62.690002 361.119995 61.860001 359.390015 60.200001 C 357.660004 58.470001 356.829987 56.400002 356.829987 53.980003 C 356.829987 51.560001 357.660004 49.480003 359.390015 47.82 C 361.119995 46.09 363.190002 45.260002 365.679993 45.260002 C 368.170013 45.260002 370.380005 46.09 372.109985 47.82 C 373.880005 49.450001 374.769989 51.490002 374.799988 53.860001 L 374.859985 53.860001 L 374.859985 71.400002 L 384.48999 71.400002 L 384.48999 36.540001 Z"/>
    <path id="path8" fill="#3b5c8a" stroke="none" d="M 76.669998 61.740002 L 76.669998 54.82 C 73.120003 54.82 69.57 54.830002 66.019997 54.82 L 66.019997 71.419998 L 98.940002 71.419998 L 98.940002 61.740002 L 76.669998 61.740002 Z"/>
    <g id="Group">
        <path id="path9" fill="#e06a47" stroke="none" d="M 121.470001 64.870003 L 126.190002 71.419998 L 137.330002 71.419998 L 127.120003 57.260002 L 121.470001 64.870003 Z"/>
        <path id="path10" fill="#3b5c8a" stroke="none" d="M 124.879997 36.560001 L 118.379997 45.760002 L 111.870003 36.560001 L 100.669998 36.560001 L 112.639999 53.09 L 99.43 71.419998 L 110.339996 71.419998 L 135.830002 36.560001 L 124.879997 36.560001 Z"/>
    </g>
    <path id="path11" fill="#e06a47" stroke="none" d="M 49.23 42.400002 C 50.029999 41.630001 50.639999 40.990002 51.32 40.420002 C 53.560001 38.540001 54.82 36.100002 55.459999 33.310001 C 55.75 32.060001 55.950001 30.75 55.060001 29.599998 C 53 26.93 50.509998 27.050003 48.849998 29.949997 C 47.790001 31.800003 46.119999 33.140003 44.52 34.530003 C 42.919998 35.920002 41.32 37.240002 39.740002 38.620003 C 36.540001 41.41 33.439999 44.5 31.26 48.18 C 28.549999 52.75 27.58 58.760002 28.799999 63.959999 C 29.870001 68.520004 34.299999 71.300003 38.82 71.370003 C 43.150002 71.440002 47.48 71.389999 51.82 71.389999 C 53.299999 71.389999 54.779999 71.43 56.259998 71.370003 C 58.900002 71.270004 60.75 69.080002 60.009998 66.550003 C 59.939999 66.300003 59.939999 66.029999 59.91 65.790001 C 62.68 64.669998 63.369999 62.380001 61.939999 59.16 C 64.669998 56.91 64.790001 55.25 62.360001 51.440002 C 62.82 51.440002 63.18 51.440002 63.549999 51.440002 L 82.349998 51.440002 C 84.849998 51.440002 86.879997 49.41 86.879997 46.91 L 86.879997 46.91 C 86.879997 44.41 84.860001 42.390003 82.370003 42.380001 C 73.379997 42.360001 49.279999 42.330002 49.23 42.380001 Z"/>
    <path id="path12" fill="#3b5c8a" stroke="none" d="M 173.979996 50.260002 C 173.979996 41.200001 169.279999 35.810001 161.050003 35.810001 C 156.419998 35.810001 152.679993 37.75 151.300003 40.790001 L 151.300003 23.220001 L 140.990005 23.220001 L 140.990005 71.43 L 151.300003 71.43 L 151.300003 51.860001 C 151.300003 47.780003 153.929993 44.940002 157.729996 44.940002 C 161.529999 44.940002 163.679993 47.43 163.679993 51.510002 L 163.679993 71.43 L 173.990005 71.43 L 173.990005 50.27 Z"/>
    <path id="path13" fill="#3b5c8a" stroke="none" d="M 180.690002 36.560001 L 190.990005 36.560001 L 190.990005 71.419998 L 180.690002 71.419998 Z"/>
    <path id="path14" fill="#3b5c8a" stroke="none" d="M 66.019997 23.209999 L 66.019997 39.140003 L 76.669998 39.140003 L 76.669998 32.900002 L 98.940002 32.900002 L 98.940002 23.209999 L 66.019997 23.209999 Z"/>
    <path id="Apps" fill="#e06a47" fill-rule="evenodd" stroke="none" d="M 544.714905 60.138672 C 544.714905 62.625015 544.13147 64.724197 542.964661 66.436279 C 541.797852 68.148361 540.058472 69.446045 537.746643 70.329346 C 535.434814 71.212646 532.555908 71.654297 529.109924 71.654297 C 526.558167 71.654297 524.371704 71.490723 522.550598 71.163574 C 520.729492 70.836426 518.891968 70.291183 517.038147 69.527832 L 517.038147 61.283691 C 519.022827 62.177902 521.154785 62.913979 523.433899 63.491943 C 525.713013 64.069908 527.714111 64.358887 529.437073 64.358887 C 531.378174 64.358887 532.768555 64.069908 533.608215 63.491943 C 534.447876 62.913979 534.867737 62.15609 534.867737 61.218262 C 534.867737 60.607582 534.69873 60.056885 534.360657 59.566162 C 534.022583 59.075439 533.297424 58.519291 532.18512 57.897705 C 531.072815 57.276119 529.328003 56.463711 526.950745 55.460449 C 524.660706 54.500809 522.779602 53.530277 521.307434 52.548828 C 519.835266 51.567379 518.744751 50.406013 518.03595 49.064697 C 517.327148 47.723381 516.972717 46.016773 516.972717 43.944824 C 516.972717 40.564274 518.286743 38.017994 520.914856 36.305908 C 523.542969 34.593822 527.059753 33.737793 531.465393 33.737793 C 533.733643 33.737793 535.898254 33.966793 537.95929 34.424805 C 540.020325 34.882816 542.141357 35.613438 544.322327 36.616699 L 541.312561 43.813965 C 539.502319 43.028805 537.795715 42.385418 536.192688 41.883789 C 534.589661 41.38216 532.959351 41.131348 531.301819 41.131348 C 529.840576 41.131348 528.739136 41.327633 527.99762 41.720215 C 527.256104 42.112797 526.885315 42.712563 526.885315 43.519531 C 526.885315 44.108402 527.076172 44.631832 527.457825 45.089844 C 527.839478 45.547855 528.581055 46.054928 529.682434 46.611084 C 530.783813 47.16724 532.403198 47.881508 534.540588 48.753906 C 536.612549 49.604496 538.411865 50.49324 539.938538 51.420166 C 541.46521 52.347092 542.642944 53.4921 543.471741 54.855225 C 544.300537 56.218349 544.714905 57.979481 544.714905 60.138672 Z M 501.167511 33.737793 C 505.289612 33.737793 508.621033 35.340805 511.161896 38.546875 C 513.702759 41.752945 514.973206 46.45293 514.973206 52.646973 C 514.973206 56.790874 514.373413 60.274971 513.173889 63.099365 C 511.974304 65.923759 510.316772 68.055656 508.201202 69.495117 C 506.085632 70.934578 503.65387 71.654297 500.905792 71.654297 C 499.139191 71.654297 497.623413 71.430748 496.358429 70.983643 C 495.093445 70.536537 494.013885 69.95858 493.119659 69.249756 C 492.225464 68.540932 491.451233 67.783043 490.796906 66.976074 L 490.273468 66.976074 C 490.447968 67.848473 490.578796 68.742676 490.666046 69.658691 C 490.753296 70.574707 490.796906 71.46891 490.796906 72.341309 L 490.796906 87.095703 L 480.818878 87.095703 L 480.818878 34.424805 L 488.932159 34.424805 L 490.338898 39.168457 L 490.796906 39.168457 C 491.451233 38.187008 492.247253 37.281906 493.185089 36.453125 C 494.122925 35.624344 495.251587 34.964603 496.571075 34.473877 C 497.890594 33.98315 499.422729 33.737793 501.167511 33.737793 Z M 497.961456 41.720215 C 496.216675 41.720215 494.831757 42.080074 493.806671 42.799805 C 492.781616 43.519535 492.034637 44.599113 491.565704 46.038574 C 491.096802 47.478035 490.840515 49.299141 490.796906 51.501953 L 490.796906 52.581543 C 490.796906 54.937023 491.020447 56.93261 491.46756 58.568359 C 491.914673 60.204109 492.667114 61.447262 493.724884 62.297852 C 494.782684 63.148441 496.238464 63.57373 498.092316 63.57373 C 499.619019 63.57373 500.873077 63.148441 501.854523 62.297852 C 502.835999 61.447262 503.572052 60.198658 504.062775 58.552002 C 504.553497 56.905346 504.798859 54.893402 504.798859 52.516113 C 504.798859 48.939274 504.242737 46.245777 503.130402 44.435547 C 502.018097 42.625317 500.295135 41.720215 497.961456 41.720215 Z M 462.789093 33.737793 C 466.911163 33.737793 470.242615 35.340805 472.783478 38.546875 C 475.324341 41.752945 476.594757 46.45293 476.594757 52.646973 C 476.594757 56.790874 475.994995 60.274971 474.795441 63.099365 C 473.595886 65.923759 471.938354 68.055656 469.822784 69.495117 C 467.707214 70.934578 465.275421 71.654297 462.527374 71.654297 C 460.760742 71.654297 459.244995 71.430748 457.980011 70.983643 C 456.715027 70.536537 455.635437 69.95858 454.741241 69.249756 C 453.847015 68.540932 453.072784 67.783043 452.418488 66.976074 L 451.89505 66.976074 C 452.069519 67.848473 452.200378 68.742676 452.287628 69.658691 C 452.374847 70.574707 452.418488 71.46891 452.418488 72.341309 L 452.418488 87.095703 L 442.44046 87.095703 L 442.44046 34.424805 L 450.553741 34.424805 L 451.96048 39.168457 L 452.418488 39.168457 C 453.072784 38.187008 453.868835 37.281906 454.806671 36.453125 C 455.744507 35.624344 456.873138 34.964603 458.192657 34.473877 C 459.512146 33.98315 461.044281 33.737793 462.789093 33.737793 Z M 459.583038 41.720215 C 457.838226 41.720215 456.453308 42.080074 455.428253 42.799805 C 454.403168 43.519535 453.656189 44.599113 453.187286 46.038574 C 452.718353 47.478035 452.462097 49.299141 452.418488 51.501953 L 452.418488 52.581543 C 452.418488 54.937023 452.642029 56.93261 453.089142 58.568359 C 453.536224 60.204109 454.288666 61.447262 455.346466 62.297852 C 456.404236 63.148441 457.860046 63.57373 459.713898 63.57373 C 461.240601 63.57373 462.494629 63.148441 463.476105 62.297852 C 464.45755 61.447262 465.193604 60.198658 465.684357 58.552002 C 466.175079 56.905346 466.420441 54.893402 466.420441 52.516113 C 466.420441 48.939274 465.864288 46.245777 464.751984 44.435547 C 463.639648 42.625317 461.916687 41.720215 459.583038 41.720215 Z M 430.299316 71 L 426.831543 59.615234 L 409.394531 59.615234 L 405.926758 71 L 395 71 L 411.880859 22.974609 L 424.279785 22.974609 L 441.226074 71 Z M 424.410645 51.109375 L 420.942871 39.986328 C 420.724762 39.244789 420.435791 38.290615 420.075928 37.123779 C 419.716064 35.956944 419.356201 34.768318 418.996338 33.557861 C 418.636475 32.347404 418.347504 31.29509 418.129395 30.400879 C 417.911285 31.29509 417.61142 32.401932 417.229736 33.721436 C 416.848053 35.040939 416.482758 36.289543 416.133789 37.467285 C 415.784821 38.645027 415.534027 39.484699 415.381348 39.986328 L 411.946289 51.109375 Z"/>
    <text id="text1" visibility="hidden" xml:space="preserve" x="393" y="73" font-family="Open Sans" font-size="67" font-weight="700" fill="#e06a47" letter-spacing="-4.02">Apps</text>
    <path id="Rectangle" fill="#000000" fill-rule="evenodd" stroke="none" d="M 545 -21 L 567 -21 L 567 -39 L 545 -39 Z"/>
</svg>
