<?xml version="1.0" encoding="UTF-8"?>
<!-- Generated by Pixelmator Pro 3.7.1 -->
<svg width="294" height="294" viewBox="0 0 294 294" xmlns="http://www.w3.org/2000/svg">
    <path id="Color-Fill" fill="#ffffff" stroke="none" visibility="hidden" d="M 0 0 L 294 0 L 294 294 L 0 294 Z"/>
    <path id="Oval" fill="#f5f5f0" fill-rule="evenodd" stroke="none" d="M 294 147 C 294 65.814148 228.185852 0 147 0 C 65.81414 0 0 65.814148 0 147 C 0 228.185852 65.81414 294 147 294 C 228.185852 294 294 228.185852 294 147 Z"/>
    <g id="Layer-1">
        <g id="Group">
            <path id="Path" fill="#3b5c8a" stroke="none" d="M 184.097473 195.30014 L 184.097473 172.329407 C 172.310013 172.361099 160.525375 172.370636 148.752274 172.354111 L 148.752274 227.433105 L 258 227.433105 L 258 195.30014 L 184.097473 195.30014 Z"/>
            <path id="path1" fill="#e06a47" stroke="none" d="M 93.029594 131.122421 C 95.690079 128.583267 97.709801 126.437149 99.951927 124.555984 C 107.372841 118.329712 111.578377 110.222961 113.698654 100.976669 C 114.653381 96.813385 115.323616 92.469299 112.382484 88.65033 C 105.547462 79.775818 97.280594 80.201263 91.787758 89.828156 C 88.276161 95.982819 82.722763 100.415527 77.431969 105.023209 C 72.181786 109.595459 66.810974 114.026947 61.564537 118.603653 C 50.931404 127.878998 40.667 138.129822 33.422916 150.339615 C 24.428406 165.499741 21.211308 185.462509 25.249643 202.70282 C 28.797192 217.847748 43.516869 227.064453 58.50544 227.303772 C 72.87825 227.533157 87.257339 227.374146 101.633698 227.374451 C 106.544807 227.374573 111.4618 227.49437 116.366135 227.308624 C 125.120827 226.977051 131.271042 219.723663 128.823837 211.311371 C 128.583115 210.483658 128.583908 209.592529 128.492065 208.778595 C 137.693588 205.057953 139.966599 197.460739 135.228455 186.78627 C 144.29335 179.308853 144.674255 173.811966 136.611252 161.163864 C 138.137772 161.163864 139.346283 161.163162 140.554794 161.164063 L 202.953415 161.164063 C 211.247116 161.164063 217.970428 154.440628 217.970428 146.146942 L 217.970428 146.146835 C 217.970428 137.864594 211.276367 131.146027 202.994034 131.129822 C 173.173065 131.071487 93.187172 130.964844 93.029594 131.122421 Z"/>
            <path id="path2" fill="#3b5c8a" stroke="none" d="M 148.752182 67.461304 L 148.752182 120.307495 L 184.097473 120.307495 L 184.097473 99.59053 L 257.999878 99.59053 L 257.999878 67.461304 L 148.752182 67.461304 Z"/>
        </g>
    </g>
</svg>
